<?xml version="1.0" standalone="no"?><!DOCTYPE svg PUBLIC "-//W3C//DTD SVG 1.1//EN" "http://www.w3.org/Graphics/SVG/1.1/DTD/svg11.dtd"><svg t="1666158151928" class="icon" viewBox="0 0 1024 1024" version="1.1" xmlns="http://www.w3.org/2000/svg" p-id="5809" data-spm-anchor-id="a313x.7781069.0.i31" xmlns:xlink="http://www.w3.org/1999/xlink" width="32" height="32"><path d="M512 196.923077c15.753846 0 29.538462-13.784615 29.538462-29.538462v-118.153846c0-15.753846-13.784615-29.538462-29.538462-29.538461s-29.538462 13.784615-29.538462 29.538461v118.153846c0 15.753846 13.784615 29.538462 29.538462 29.538462zM659.692308 580.923077c-15.753846 0-29.538462 13.784615-29.538462 29.538461 0 64.984615-53.169231 118.153846-118.153846 118.153847s-118.153846-53.169231-118.153846-118.153847c0-15.753846-13.784615-29.538462-29.538462-29.538461S334.769231 594.707692 334.769231 610.461538c0 98.461538 78.769231 177.230769 177.230769 177.23077s177.230769-78.769231 177.230769-177.23077c0-15.753846-13.784615-29.538462-29.538461-29.538461zM224.492308 732.553846l-51.2 29.538462c-13.784615 7.876923-19.692308 25.6-9.846154 39.384615 7.876923 13.784615 25.6 19.692308 39.384615 9.846154l51.2-29.538462c13.784615-7.876923 19.692308-25.6 9.846154-39.384615-7.876923-13.784615-25.6-17.723077-39.384615-9.846154zM850.707692 762.092308l-51.2-29.538462c-13.784615-7.876923-31.507692-3.938462-39.384615 9.846154-7.876923 13.784615-3.938462 31.507692 9.846154 39.384615l51.2 29.538462c13.784615 7.876923 31.507692 3.938462 39.384615-9.846154 9.846154-13.784615 3.938462-31.507692-9.846154-39.384615zM370.215385 846.769231c-13.784615-7.876923-31.507692-3.938462-39.384616 9.846154l-29.538461 51.2c-7.876923 13.784615-3.938462 31.507692 9.846154 39.384615 13.784615 7.876923 31.507692 3.938462 39.384615-9.846154l29.538461-51.2c7.876923-11.815385 3.938462-29.538462-9.846153-39.384615zM695.138462 858.584615c-7.876923-13.784615-25.6-19.692308-39.384616-9.846153-13.784615 7.876923-19.692308 25.6-9.846154 39.384615l29.538462 51.2c7.876923 13.784615 25.6 19.692308 39.384615 9.846154 13.784615-7.876923 19.692308-25.6 9.846154-39.384616l-29.538461-51.2zM512 886.153846c-15.753846 0-29.538462 13.784615-29.538462 29.538462v59.076923c0 15.753846 13.784615 29.538462 29.538462 29.538461s29.538462-13.784615 29.538462-29.538461v-59.076923c0-15.753846-13.784615-29.538462-29.538462-29.538462z" fill="#13227a" p-id="5810" data-spm-anchor-id="a313x.7781069.0.i30" class=""></path><path d="M945.230769 630.153846H78.769231v-39.384615C78.769231 352.492308 273.723077 157.538462 512 157.538462s433.230769 194.953846 433.230769 433.230769v39.384615zM137.846154 571.076923h748.307692c-9.846154-196.923077-173.292308-354.461538-374.153846-354.461538S147.692308 374.153846 137.846154 571.076923z" fill="#13227a" p-id="5811" data-spm-anchor-id="a313x.7781069.0.i29" class=""></path><path d="M512 236.307692c-183.138462 0-332.8 137.846154-352.492308 315.076923h704.984616c-19.692308-177.230769-169.353846-315.076923-352.492308-315.076923z" fill="#13227a" p-id="5812" data-spm-anchor-id="a313x.7781069.0.i32" class="selected"></path></svg>