<?xml version="1.0" standalone="no"?><!DOCTYPE svg PUBLIC "-//W3C//DTD SVG 1.1//EN" "http://www.w3.org/Graphics/SVG/1.1/DTD/svg11.dtd"><svg t="1665985592455" class="icon" viewBox="0 0 1024 1024" version="1.1" xmlns="http://www.w3.org/2000/svg" p-id="5438" data-spm-anchor-id="a313x.7781069.0.i4" xmlns:xlink="http://www.w3.org/1999/xlink" width="256" height="256"><path d="M480 278.656V181.333333a32 32 0 0 1 64 0v97.322667C741.12 294.912 896 460.032 896 661.333333h-170.666667c0 117.824-95.509333 213.333333-213.333333 213.333334s-213.333333-95.509333-213.333333-213.333334H128c0-201.301333 154.88-366.421333 352-382.677333zM825.6 597.333333c-29.653333-146.069333-158.784-256-313.6-256S228.053333 451.264 198.4 597.333333h627.2zM362.666667 661.333333a149.333333 149.333333 0 0 0 298.666666 0H362.666667z" p-id="5439" fill="#2c2c2c"></path></svg>