<?xml version="1.0" standalone="no"?><!DOCTYPE svg PUBLIC "-//W3C//DTD SVG 1.1//EN" "http://www.w3.org/Graphics/SVG/1.1/DTD/svg11.dtd"><svg t="1666857453636" class="icon" viewBox="0 0 1024 1024" version="1.1" xmlns="http://www.w3.org/2000/svg" p-id="8659" xmlns:xlink="http://www.w3.org/1999/xlink" width="32" height="32"><path d="M938.666667 512a384 384 0 0 1-384 384 379.306667 379.306667 0 0 1-220.16-69.546667 21.76 21.76 0 0 1-8.96-15.786666 21.333333 21.333333 0 0 1 5.973333-16.64l30.72-31.146667a21.333333 21.333333 0 0 1 26.88-2.56A294.826667 294.826667 0 0 0 554.666667 810.666667a298.666667 298.666667 0 1 0-298.666667-298.666667h100.693333a20.906667 20.906667 0 0 1 15.36 6.4l8.533334 8.533333a21.333333 21.333333 0 0 1 0 30.293334L229.973333 708.266667a21.76 21.76 0 0 1-30.293333 0l-150.613333-151.04a21.333333 21.333333 0 0 1 0-30.293334l8.533333-8.533333a20.906667 20.906667 0 0 1 15.36-6.4H170.666667a384 384 0 0 1 768 0z" p-id="8660"></path></svg>