<?xml version="1.0" standalone="no"?><!DOCTYPE svg PUBLIC "-//W3C//DTD SVG 1.1//EN" "http://www.w3.org/Graphics/SVG/1.1/DTD/svg11.dtd"><svg t="1666857709560" class="icon" viewBox="0 0 1024 1024" version="1.1" xmlns="http://www.w3.org/2000/svg" p-id="19146" xmlns:xlink="http://www.w3.org/1999/xlink" width="32" height="32"><path d="M889.101474 781.527579h-134.736842v-134.736842a26.947368 26.947368 0 0 0-53.894737 0v161.68421a26.947368 26.947368 0 0 0 26.947368 26.947369h161.684211a26.947368 26.947368 0 0 0 0-53.894737zM727.578947 317.062737a26.947368 26.947368 0 0 0-26.947368-26.947369H161.684211a26.947368 26.947368 0 0 0 0 53.894737h538.947368a26.947368 26.947368 0 0 0 26.947368-26.947368zM565.894737 478.746947a26.947368 26.947368 0 0 0-26.947369-26.947368H161.684211a26.947368 26.947368 0 0 0 0 53.894737h377.263157a26.947368 26.947368 0 0 0 26.947369-26.947369zM377.263158 613.483789H161.684211a26.947368 26.947368 0 0 0 0 53.894737h215.578947a26.947368 26.947368 0 0 0 0-53.894737zM377.263158 775.168H161.684211a26.947368 26.947368 0 0 0 0 53.894737h215.578947a26.947368 26.947368 0 0 0 0-53.894737z" p-id="19147"></path><path d="M754.526316 485.052632c-148.587789 0-269.473684 120.885895-269.473684 269.473684 0 88.441263 43.439158 166.426947 109.46021 215.578947H80.842105c-15.090526 0-26.947368-11.856842-26.947368-26.947368v-808.421053c0-15.090526 11.856842-26.947368 26.947368-26.947368h139.695158c11.156211 31.312842 40.798316 53.894737 75.88379 53.894737h269.473684c35.085474 0 64.727579-22.581895 75.883789-53.894737H781.473684a26.947368 26.947368 0 0 1 26.947369 26.947368v218.812632a26.947368 26.947368 0 0 0 53.894736 0V134.736842c0-44.570947-36.271158-80.842105-80.842105-80.842105h-139.695158c-11.156211-31.312842-40.798316-53.894737-75.883789-53.894737h-269.473684c-35.085474 0-64.727579 22.581895-75.88379 53.894737H80.842105C36.271158 53.894737 0 90.165895 0 134.736842v808.421053c0 44.570947 36.271158 80.842105 80.842105 80.842105h646.736842a26.516211 26.516211 0 0 0 9.000421-1.832421c6.036211 0.431158 11.802947 1.832421 17.946948 1.832421 148.587789 0 269.473684-120.885895 269.473684-269.473684s-120.885895-269.473684-269.473684-269.473684zM296.421053 53.894737h269.473684a26.947368 26.947368 0 0 1 0 53.894737h-269.473684a26.947368 26.947368 0 0 1 0-53.894737zM754.526316 970.105263c-118.891789 0-215.578947-96.687158-215.578948-215.578947s96.687158-215.578947 215.578948-215.578948 215.578947 96.687158 215.578947 215.578948-96.687158 215.578947-215.578947 215.578947z" p-id="19148"></path></svg>