<?xml version="1.0" standalone="no"?><!DOCTYPE svg PUBLIC "-//W3C//DTD SVG 1.1//EN" "http://www.w3.org/Graphics/SVG/1.1/DTD/svg11.dtd"><svg t="1666254881225" class="icon" viewBox="0 0 1024 1024" version="1.1" xmlns="http://www.w3.org/2000/svg" p-id="3520" xmlns:xlink="http://www.w3.org/1999/xlink" width="32" height="32"><path d="M928 96H96c-35.296 0-64 28.704-64 64v704c0 35.296 28.704 64 64 64h832c35.296 0 64-28.704 64-64V160c0-35.296-28.704-64-64-64zM96 864V160h832l0.064 704H96z" p-id="3521" data-spm-anchor-id="a313x.7781069.0.i7" class="selected" fill="#2c2c2c"></path><path d="M832 192H192c-35.296 0-64 28.704-64 64v512c0 35.296 28.704 64 64 64h640c35.296 0 64-28.704 64-64V256c0-35.296-28.704-64-64-64zM192 768V256h640l0.064 512H192z" p-id="3522" data-spm-anchor-id="a313x.7781069.0.i4" class="selected" fill="#2c2c2c"></path><path d="M672 288H352a32 32 0 0 0 0 64h320a32 32 0 1 0 0-64z" p-id="3523" data-spm-anchor-id="a313x.7781069.0.i6" class="selected" fill="#2c2c2c"></path></svg>