<?xml version="1.0" standalone="no"?><!DOCTYPE svg PUBLIC "-//W3C//DTD SVG 1.1//EN" "http://www.w3.org/Graphics/SVG/1.1/DTD/svg11.dtd"><svg t="1666255389941" class="icon" viewBox="0 0 1024 1024" version="1.1" xmlns="http://www.w3.org/2000/svg" p-id="6874" xmlns:xlink="http://www.w3.org/1999/xlink" width="32" height="32"><path d="M361.721857 200.357214l213.052351 0 0 35.603893-213.052351 0 0-35.603893Z" p-id="6875"></path><path d="M361.746416 293.643853l212.977649 0 0 35.603893-212.977649 0 0-35.603893Z" p-id="6876"></path><path d="M468.260312 656.098909c-33.590026 0-60.765969 27.696806-60.765969 61.910025 0 34.211173 27.175943 61.95812 60.765969 61.95812 33.540907 0 60.71685-27.746948 60.71685-61.95812C528.978185 683.796738 501.801219 656.098909 468.260312 656.098909zM468.235752 754.657622c-19.840884 0-35.901675-16.360619-35.901675-36.647665 0-20.189831 16.061814-36.601616 35.901675-36.601616 19.891026 0 35.901675 16.410762 35.901675 36.601616C504.137427 738.297003 488.125755 754.657622 468.235752 754.657622z" p-id="6877"></path><path d="M726.664569 656.745638c7.233752 20.139689-3.332908 42.466184-23.571858 49.676399-20.212344 7.209192-42.539862-3.331885-49.776683-23.520693-7.210215-20.287045 3.432169-42.566468 23.645536-49.77566C697.175955 625.864304 719.427748 636.45757 726.664569 656.745638z" p-id="6878"></path><path d="M832.48057 709.85216l-44.851511-22.873963c1.890047-10.491958 2.51017-21.283746 1.01819-32.122605l36.673248-13.227256-12.903891-35.704177-36.002982 12.878309c-6.191003-11.18883-14.270005-20.735253-23.644513-28.690436l21.135366-44.754297-34.337039-16.309454-19.940145 42.466184c-14.643512-4.974291-30.308283-6.813173-46.071292-4.475941l-16.930601-47.537689-35.879162 12.728906 16.956184 47.538713c-11.138688 6.662747-20.562315 15.314801-28.14399 25.309432l-44.580335-23.768333-17.950837 33.465183 45.697785 24.415063c-4.053316 14.569834-4.797259 30.133298-1.963725 45.747927l-42.442648 15.165398 12.756535 35.804461 43.011606-15.316847c7.260357 11.93482 16.758686 21.880333 27.624151 29.737278l-21.556968 42.763966 34.012651 17.155728 21.979594-43.708478c12.505825 3.182482 25.659403 3.877307 38.811957 1.890047l13.823843 38.736233 35.777855-12.781094-13.773701-38.686091c13.849426-8.253988 24.88783-19.790742 33.142841-33.019021l41.222867 20.98494L832.48057 709.85216zM716.818317 745.307673c-41.99444 14.966876-88.512916-7.608282-103.779621-50.42239-15.266705-42.814108 6.489808-89.756233 48.483224-104.724133 42.317805-15.06716 88.488357 7.6574 103.754039 50.423413C780.541641 683.398672 759.109516 730.24256 716.818317 745.307673z" p-id="6879"></path><path d="M622.014114 808.758798c-7.28287 13.027711-19.716041 22.228257-34.907021 22.228257L349.364411 830.987055c-23.39585 0-42.317805-20.388353-42.317805-45.450145l0-615.661941c0-25.111934 18.921955-45.400003 42.317805-45.400003l237.741659 0c23.346731 0 42.317805 20.288069 42.317805 45.400003l0 346.345146c11.089569 0.596588 22.252817 0.74599 32.721239-0.995677l0-384.384507c0-28.145014-22.801309-50.919716-50.92074-50.919716L325.24713 79.920214c-28.120454 0-50.919716 22.774703-50.919716 50.919716l0 691.046862c0 28.094872 22.799262 50.92074 50.919716 50.92074L611.224374 872.807532c28.119431 0 50.92074-22.825868 50.92074-50.92074l0-9.646708C648.767432 811.394834 635.390773 810.30092 622.014114 808.758798z" p-id="6880"></path></svg>